<?xml version="1.0" encoding="UTF-8"?>
<!DOCTYPE svg PUBLIC "-//W3C//DTD SVG 1.1//EN" "http://www.w3.org/Graphics/SVG/1.1/DTD/svg11.dtd">
<!-- Creator: CorelDRAW 2019 (64-Bit) -->
<svg xmlns="http://www.w3.org/2000/svg" xml:space="preserve" width="108px" height="35px" version="1.1" style="shape-rendering:geometricPrecision; text-rendering:geometricPrecision; image-rendering:optimizeQuality; fill-rule:evenodd; clip-rule:evenodd"
viewBox="0 0 71.67 23.22"
 xmlns:xlink="http://www.w3.org/1999/xlink"
 xmlns:xodm="http://www.corel.com/coreldraw/odm/2003">
 <defs>
  <style type="text/css">
   <![CDATA[
    .fil2 {fill:none}
    .fil0 {fill:white}
    .fil1 {fill:white;fill-rule:nonzero}
   ]]>
  </style>
 </defs>
 <g id="Layer_x0020_1">
  <metadata id="CorelCorpID_0Corel-Layer"/>
  <g id="_2572543369408">
   <path class="fil0" d="M2.51 6.19l-1.07 0 0 11.45 1.07 0 6.29 0c0,0 1.69,0.12 2.13,0.88l0 -0.53 0 -0.4c-0.71,-1.29 -2.04,-1.11 -2.04,-1.11l-5.85 0c0,0 -0.53,0.18 -0.53,-0.35l0 -9.94z"/>
   <path class="fil0" d="M3.57 15.86l5.41 0c0,0 1.95,0.03 1.95,0.8l0 -10.47c0,0 -0.96,-2.12 -2.8,-2.12l-4.56 0 0 11.79z"/>
   <path class="fil0" d="M20.24 6.19l1.07 0 0 11.45 -1.07 0 -6.29 0c0,0 -1.69,0.12 -2.13,0.88l0 -0.53 0 -0.4c0.71,-1.29 2.04,-1.11 2.04,-1.11l5.85 0c0,0 0.53,0.18 0.53,-0.35l0 -9.94z"/>
   <path class="fil0" d="M19.18 15.86l-5.41 0c0,0 -1.95,0.03 -1.95,0.8l0 -10.47c0,0 0.96,-2.12 2.8,-2.12l4.56 0 0 11.79z"/>
   <path class="fil1" d="M33.51 11.81c0,0.17 -0.09,0.39 -0.28,0.68 -0.05,0.08 -0.24,0.15 -0.55,0.22 -0.33,0.07 -0.67,0.13 -1,0.2 -0.69,0.16 -1.22,0.34 -1.58,0.54 -0.2,0.12 -0.38,0.18 -0.53,0.18 -0.33,0 -0.5,-0.29 -0.5,-0.87 0,-0.24 0.01,-0.59 0.04,-1.06 0.02,-0.47 0.03,-0.82 0.03,-1.05 0,-0.56 -0.04,-1.91 -0.11,-4.06 -0.01,-0.34 0.16,-0.51 0.51,-0.51 0.13,0 0.25,0.02 0.36,0.07 0.12,0.05 0.18,0.1 0.2,0.15 0.25,0.67 0.37,1.9 0.37,3.68 0,0.8 -0.04,1.41 -0.11,1.83 0.23,-0.07 0.62,-0.14 1.19,-0.21 0.56,-0.06 1.03,-0.1 1.41,-0.1 0.19,0 0.32,0.01 0.36,0.03 0.12,0.04 0.19,0.13 0.19,0.28z"/>
   <path id="1" class="fil1" d="M41.07 9.55c0,0.73 -0.29,1.25 -0.87,1.58 -0.47,0.27 -1.09,0.39 -1.87,0.37 0.02,0.51 0.37,0.77 1.06,0.77 0.15,0 0.35,-0.02 0.61,-0.04 0.25,-0.03 0.42,-0.04 0.49,-0.05 0.23,-0.01 0.41,0.06 0.54,0.19 0.13,0.13 0.19,0.28 0.19,0.45 0,0.36 -0.2,0.57 -0.59,0.65 -0.34,0.07 -0.69,0.1 -1.04,0.1 -0.61,0 -1.12,-0.1 -1.54,-0.32 -0.5,-0.25 -0.81,-0.64 -0.94,-1.17 -0.07,-0.29 -0.1,-0.58 -0.1,-0.89 0,-0.65 0.14,-1.25 0.44,-1.8 0.31,-0.59 0.75,-1.01 1.3,-1.27 0.2,-0.09 0.35,-0.14 0.46,-0.14 0.5,0 0.92,0.14 1.27,0.41 0.4,0.29 0.59,0.68 0.59,1.16zm-1.29 0c0,-0.08 -0.03,-0.14 -0.11,-0.2 -0.07,-0.05 -0.15,-0.08 -0.23,-0.08 -0.03,0 -0.07,0 -0.11,0.01 -0.33,0.07 -0.61,0.38 -0.84,0.93 0.86,0.02 1.29,-0.2 1.29,-0.66z"/>
   <path id="2" class="fil1" d="M49.42 11.97c0,0.49 -0.27,0.89 -0.82,1.19 -0.48,0.27 -1.06,0.41 -1.71,0.41 -0.53,0.02 -0.95,-0.06 -1.27,-0.23 -0.37,-0.2 -0.55,-0.49 -0.55,-0.87 0,-0.18 0.07,-0.32 0.21,-0.44 0.13,-0.12 0.29,-0.18 0.47,-0.18 0.2,0 0.36,0.09 0.49,0.28 0.13,0.18 0.26,0.27 0.39,0.27 0.32,0 0.62,-0.03 0.91,-0.1 0.42,-0.1 0.63,-0.25 0.63,-0.45 0,-0.21 -0.27,-0.37 -0.82,-0.48 -0.81,-0.16 -1.31,-0.29 -1.51,-0.38 -0.54,-0.23 -0.81,-0.61 -0.81,-1.12 0,-0.66 0.27,-1.16 0.83,-1.5 0.47,-0.28 1.03,-0.42 1.7,-0.41 0.45,0.02 0.81,0.09 1.09,0.21 0.31,0.14 0.46,0.33 0.46,0.56 0,0.43 -0.19,0.64 -0.58,0.64 -0.14,0 -0.34,-0.03 -0.6,-0.09 -0.27,-0.06 -0.45,-0.1 -0.53,-0.1 -0.22,0 -0.43,0.03 -0.65,0.09 -0.31,0.09 -0.46,0.21 -0.45,0.36 0.01,0.29 0.29,0.48 0.83,0.57 0.8,0.12 1.3,0.23 1.5,0.32 0.53,0.26 0.79,0.74 0.79,1.45z"/>
   <path id="3" class="fil1" d="M54.74 12.85c0,0.22 -0.07,0.39 -0.21,0.52 -0.14,0.12 -0.3,0.18 -0.49,0.18 -0.2,0 -0.37,-0.06 -0.51,-0.18 -0.14,-0.13 -0.21,-0.3 -0.21,-0.52 0,-0.21 0.07,-0.39 0.22,-0.52 0.13,-0.12 0.3,-0.18 0.5,-0.18 0.19,0 0.35,0.06 0.48,0.18 0.15,0.13 0.22,0.31 0.22,0.52z"/>
   <path id="4" class="fil1" d="M60.14 6.81c0,0.2 -0.05,0.36 -0.15,0.46 -0.07,0.08 -0.23,0.18 -0.48,0.32 -0.06,0.03 -0.12,0.05 -0.17,0.05 -0.16,0 -0.3,-0.09 -0.43,-0.27 -0.13,-0.18 -0.19,-0.37 -0.19,-0.57 0,-0.38 0.26,-0.57 0.79,-0.57 0.24,0 0.41,0.04 0.5,0.13 0.08,0.08 0.13,0.23 0.13,0.45zm0.22 6.02c0.01,0.04 0.01,0.09 0.01,0.14 0,0.19 -0.06,0.34 -0.2,0.45 -0.13,0.11 -0.29,0.17 -0.46,0.17 -0.36,0 -0.56,-0.18 -0.63,-0.54 -0.14,-0.83 -0.21,-1.81 -0.21,-2.94 0,-0.49 0.02,-0.9 0.06,-1.23 0.01,-0.18 0.08,-0.32 0.2,-0.42 0.13,-0.1 0.27,-0.15 0.43,-0.15 0.19,0 0.35,0.07 0.49,0.2 0.13,0.13 0.19,0.31 0.16,0.53 -0.04,0.28 -0.06,0.63 -0.06,1.07 0,1.05 0.07,1.96 0.21,2.72z"/>
   <path id="5" class="fil1" d="M69.29 12.93c0,0.15 -0.06,0.28 -0.18,0.37 -0.13,0.1 -0.27,0.14 -0.45,0.14 -0.3,0 -0.52,-0.13 -0.66,-0.41 -0.14,-0.27 -0.23,-0.58 -0.27,-0.92 -0.02,-0.18 -0.03,-0.47 -0.03,-0.87 0,-0.08 0,-0.19 0,-0.35 0,-0.16 0,-0.28 0,-0.36 0,-0.47 -0.08,-0.84 -0.24,-1.11 -0.05,-0.07 -0.14,-0.1 -0.27,-0.1 -0.1,0 -0.22,0.02 -0.37,0.06 -0.25,0.06 -0.51,0.19 -0.78,0.38 -0.33,0.25 -0.55,0.53 -0.67,0.84 -0.05,0.85 -0.03,1.49 0.06,1.92 0.09,0.16 0.13,0.31 0.13,0.44 0,0.15 -0.07,0.3 -0.21,0.43 -0.14,0.13 -0.28,0.19 -0.43,0.18 -0.58,-0.01 -0.87,-0.64 -0.87,-1.9 0,-0.31 0.02,-0.74 0.04,-1.29 0.03,-0.56 0.04,-0.91 0.04,-1.04 0,-0.05 -0.01,-0.12 -0.02,-0.21 -0.01,-0.1 -0.02,-0.17 -0.02,-0.22 0,-0.19 0.07,-0.36 0.2,-0.5 0.14,-0.14 0.29,-0.21 0.46,-0.21 0.34,0 0.56,0.27 0.66,0.8 0.22,-0.23 0.52,-0.46 0.89,-0.67 0.43,-0.25 0.79,-0.37 1.07,-0.37 0.05,0 0.1,0 0.15,0.01 0.31,0.07 0.58,0.21 0.82,0.44 0.37,0.36 0.58,0.88 0.63,1.57 0.01,0.15 0.02,0.57 0.02,1.26 0,0.48 0.04,0.87 0.13,1.16 0,0.02 0.04,0.11 0.11,0.26 0.04,0.11 0.06,0.2 0.06,0.27z"/>
   <polygon class="fil1" points="28.9,17.36 28.9,15.43 29.21,15.43 29.21,17.09 30.03,17.09 30.03,17.36 "/>
   <path id="1" class="fil1" d="M32.87 17.38c-0.23,0 -0.41,-0.06 -0.53,-0.19 -0.13,-0.14 -0.2,-0.32 -0.2,-0.55 0,-0.24 0.06,-0.43 0.18,-0.56 0.12,-0.14 0.28,-0.21 0.49,-0.21 0.19,0 0.34,0.06 0.46,0.18 0.11,0.12 0.16,0.28 0.16,0.48l0 0.17 -0.97 0c0.01,0.14 0.05,0.25 0.12,0.32 0.07,0.08 0.17,0.12 0.3,0.12 0.09,0 0.17,-0.01 0.24,-0.03 0.08,-0.01 0.16,-0.04 0.24,-0.08l0 0.26c-0.07,0.03 -0.15,0.06 -0.23,0.07 -0.07,0.02 -0.16,0.02 -0.26,0.02zm-0.06 -1.27c-0.1,0 -0.18,0.03 -0.24,0.09 -0.05,0.06 -0.09,0.15 -0.1,0.27l0.66 0c0,-0.12 -0.03,-0.21 -0.09,-0.27 -0.05,-0.06 -0.13,-0.09 -0.23,-0.09z"/>
   <path id="2" class="fil1" d="M36.67 16.94c0,0.14 -0.05,0.25 -0.16,0.33 -0.1,0.08 -0.25,0.11 -0.44,0.11 -0.2,0 -0.35,-0.03 -0.47,-0.08l0 -0.27c0.17,0.08 0.33,0.12 0.48,0.12 0.19,0 0.28,-0.06 0.28,-0.18 0,-0.03 -0.01,-0.06 -0.03,-0.09 -0.02,-0.02 -0.05,-0.05 -0.1,-0.07 -0.05,-0.03 -0.12,-0.06 -0.2,-0.09 -0.17,-0.07 -0.29,-0.13 -0.35,-0.2 -0.05,-0.06 -0.08,-0.15 -0.08,-0.25 0,-0.13 0.05,-0.22 0.15,-0.29 0.1,-0.07 0.23,-0.11 0.41,-0.11 0.17,0 0.33,0.04 0.48,0.11l-0.1 0.23c-0.15,-0.06 -0.29,-0.1 -0.39,-0.1 -0.17,0 -0.25,0.05 -0.25,0.14 0,0.05 0.02,0.09 0.07,0.12 0.04,0.03 0.13,0.07 0.27,0.13 0.12,0.05 0.21,0.09 0.27,0.13 0.05,0.04 0.09,0.08 0.12,0.13 0.02,0.05 0.04,0.11 0.04,0.18z"/>
   <path id="3" class="fil1" d="M41.2 16.38c0,0.31 -0.08,0.56 -0.26,0.72 -0.18,0.17 -0.43,0.26 -0.76,0.26l-0.54 0 0 -1.93 0.59 0c0.31,0 0.55,0.08 0.72,0.25 0.17,0.16 0.25,0.4 0.25,0.7zm-0.33 0.01c0,-0.46 -0.21,-0.7 -0.64,-0.7l-0.28 0 0 1.4 0.23 0c0.46,0 0.69,-0.23 0.69,-0.7z"/>
   <path id="4" class="fil1" d="M43.8 17.36l-0.31 0 0 -1.46 0.31 0 0 1.46zm-0.33 -1.85c0,-0.05 0.01,-0.09 0.04,-0.12 0.03,-0.03 0.08,-0.05 0.13,-0.05 0.06,0 0.1,0.02 0.13,0.05 0.03,0.03 0.05,0.07 0.05,0.12 0,0.06 -0.02,0.1 -0.05,0.13 -0.03,0.03 -0.07,0.04 -0.13,0.04 -0.05,0 -0.1,-0.01 -0.13,-0.04 -0.03,-0.03 -0.04,-0.07 -0.04,-0.13z"/>
   <path id="5" class="fil1" d="M47.12 16.94c0,0.14 -0.05,0.25 -0.16,0.33 -0.1,0.08 -0.25,0.11 -0.44,0.11 -0.19,0 -0.35,-0.03 -0.47,-0.08l0 -0.27c0.17,0.08 0.33,0.12 0.48,0.12 0.19,0 0.29,-0.06 0.29,-0.18 0,-0.03 -0.01,-0.06 -0.04,-0.09 -0.02,-0.02 -0.05,-0.05 -0.1,-0.07 -0.05,-0.03 -0.12,-0.06 -0.2,-0.09 -0.17,-0.07 -0.28,-0.13 -0.34,-0.2 -0.06,-0.06 -0.09,-0.15 -0.09,-0.25 0,-0.13 0.05,-0.22 0.15,-0.29 0.1,-0.07 0.24,-0.11 0.41,-0.11 0.17,0 0.33,0.04 0.49,0.11l-0.1 0.23c-0.16,-0.06 -0.29,-0.1 -0.4,-0.1 -0.16,0 -0.25,0.05 -0.25,0.14 0,0.05 0.03,0.09 0.07,0.12 0.04,0.03 0.13,0.07 0.28,0.13 0.12,0.05 0.21,0.09 0.26,0.13 0.05,0.04 0.09,0.08 0.12,0.13 0.03,0.05 0.04,0.11 0.04,0.18z"/>
   <path id="6" class="fil1" d="M49.67 17.36l-0.31 0 0 -1.46 0.31 0 0 1.46zm-0.33 -1.85c0,-0.05 0.01,-0.09 0.04,-0.12 0.03,-0.03 0.08,-0.05 0.13,-0.05 0.06,0 0.1,0.02 0.13,0.05 0.03,0.03 0.05,0.07 0.05,0.12 0,0.06 -0.02,0.1 -0.05,0.13 -0.03,0.03 -0.07,0.04 -0.13,0.04 -0.05,0 -0.1,-0.01 -0.13,-0.04 -0.03,-0.03 -0.04,-0.07 -0.04,-0.13z"/>
   <path id="7" class="fil1" d="M53.29 17.36l-0.31 0 0 -0.9c0,-0.11 -0.02,-0.2 -0.07,-0.25 -0.04,-0.06 -0.11,-0.08 -0.21,-0.08 -0.13,0 -0.23,0.04 -0.29,0.11 -0.06,0.08 -0.09,0.21 -0.09,0.39l0 0.73 -0.31 0 0 -1.46 0.24 0 0.05 0.19 0.01 0c0.05,-0.07 0.11,-0.12 0.19,-0.16 0.08,-0.04 0.17,-0.06 0.27,-0.06 0.35,0 0.52,0.18 0.52,0.54l0 0.95z"/>
   <path id="8" class="fil1" d="M55.94 17.36l-0.31 0 0 -1.46 0.31 0 0 1.46zm-0.33 -1.85c0,-0.05 0.01,-0.09 0.04,-0.12 0.03,-0.03 0.08,-0.05 0.13,-0.05 0.06,0 0.1,0.02 0.13,0.05 0.03,0.03 0.04,0.07 0.04,0.12 0,0.06 -0.01,0.1 -0.04,0.13 -0.03,0.03 -0.07,0.04 -0.13,0.04 -0.05,0 -0.1,-0.01 -0.13,-0.04 -0.03,-0.03 -0.04,-0.07 -0.04,-0.13z"/>
   <path id="9" class="fil1" d="M60.13 16.83c0,0.18 -0.07,0.31 -0.19,0.41 -0.12,0.1 -0.3,0.14 -0.51,0.14 -0.22,0 -0.4,-0.03 -0.54,-0.1l0 -0.3c0.09,0.04 0.18,0.08 0.28,0.1 0.1,0.03 0.19,0.04 0.28,0.04 0.12,0 0.21,-0.03 0.27,-0.07 0.06,-0.05 0.09,-0.11 0.09,-0.19 0,-0.08 -0.03,-0.14 -0.08,-0.19 -0.05,-0.05 -0.17,-0.11 -0.34,-0.18 -0.17,-0.07 -0.3,-0.15 -0.37,-0.24 -0.07,-0.09 -0.11,-0.2 -0.11,-0.33 0,-0.16 0.06,-0.29 0.18,-0.38 0.11,-0.09 0.26,-0.14 0.46,-0.14 0.18,0 0.36,0.04 0.55,0.12l-0.1 0.26c-0.18,-0.07 -0.33,-0.11 -0.46,-0.11 -0.11,0 -0.18,0.02 -0.24,0.07 -0.05,0.04 -0.07,0.1 -0.07,0.18 0,0.05 0.01,0.09 0.03,0.12 0.02,0.04 0.05,0.07 0.1,0.11 0.05,0.03 0.14,0.07 0.26,0.12 0.14,0.06 0.25,0.11 0.31,0.16 0.07,0.06 0.12,0.11 0.15,0.18 0.03,0.06 0.05,0.14 0.05,0.22z"/>
   <path id="10" class="fil1" d="M63.28 17.36l-0.06 -0.2 -0.01 0c-0.07,0.08 -0.14,0.14 -0.22,0.18 -0.07,0.03 -0.16,0.04 -0.27,0.04 -0.14,0 -0.26,-0.03 -0.34,-0.11 -0.08,-0.08 -0.12,-0.19 -0.12,-0.33 0,-0.15 0.06,-0.26 0.17,-0.34 0.11,-0.08 0.28,-0.12 0.51,-0.13l0.25 0 0 -0.08c0,-0.09 -0.02,-0.16 -0.06,-0.21 -0.05,-0.05 -0.11,-0.07 -0.21,-0.07 -0.07,0 -0.14,0.01 -0.21,0.03 -0.07,0.03 -0.13,0.05 -0.2,0.08l-0.1 -0.22c0.08,-0.04 0.17,-0.07 0.26,-0.1 0.1,-0.02 0.19,-0.03 0.27,-0.03 0.18,0 0.32,0.04 0.42,0.12 0.09,0.09 0.14,0.21 0.14,0.39l0 0.98 -0.22 0zm-0.46 -0.21c0.11,0 0.2,-0.03 0.27,-0.1 0.07,-0.06 0.1,-0.15 0.1,-0.26l0 -0.13 -0.19 0.01c-0.14,0 -0.25,0.03 -0.32,0.07 -0.06,0.05 -0.1,0.11 -0.1,0.2 0,0.07 0.02,0.12 0.06,0.15 0.04,0.04 0.1,0.06 0.18,0.06z"/>
   <path id="11" class="fil1" d="M65.69 18.01c-0.1,0 -0.18,-0.02 -0.24,-0.04l0 -0.24c0.06,0.01 0.12,0.02 0.19,0.02 0.13,0 0.19,-0.07 0.19,-0.22l0 -1.63 0.31 0 0 1.65c0,0.15 -0.04,0.26 -0.11,0.34 -0.08,0.08 -0.2,0.12 -0.34,0.12zm0.13 -2.5c0,-0.05 0.01,-0.09 0.04,-0.12 0.03,-0.03 0.07,-0.05 0.13,-0.05 0.05,0 0.1,0.02 0.13,0.05 0.03,0.03 0.04,0.07 0.04,0.12 0,0.06 -0.01,0.1 -0.04,0.13 -0.03,0.03 -0.08,0.04 -0.13,0.04 -0.06,0 -0.1,-0.01 -0.13,-0.04 -0.03,-0.03 -0.04,-0.07 -0.04,-0.13z"/>
   <path id="12" class="fil1" d="M69.4 17.36l-0.06 -0.2 -0.01 0c-0.07,0.08 -0.14,0.14 -0.22,0.18 -0.07,0.03 -0.16,0.04 -0.27,0.04 -0.14,0 -0.25,-0.03 -0.33,-0.11 -0.08,-0.08 -0.12,-0.19 -0.12,-0.33 0,-0.15 0.05,-0.26 0.16,-0.34 0.11,-0.08 0.28,-0.12 0.51,-0.13l0.25 0 0 -0.08c0,-0.09 -0.02,-0.16 -0.06,-0.21 -0.04,-0.05 -0.11,-0.07 -0.2,-0.07 -0.08,0 -0.15,0.01 -0.22,0.03 -0.07,0.03 -0.13,0.05 -0.2,0.08l-0.1 -0.22c0.08,-0.04 0.17,-0.07 0.26,-0.1 0.1,-0.02 0.19,-0.03 0.27,-0.03 0.19,0 0.33,0.04 0.42,0.12 0.09,0.09 0.14,0.21 0.14,0.39l0 0.98 -0.22 0zm-0.46 -0.21c0.11,0 0.2,-0.03 0.27,-0.1 0.07,-0.06 0.1,-0.15 0.1,-0.26l0 -0.13 -0.19 0.01c-0.14,0 -0.25,0.03 -0.31,0.07 -0.07,0.05 -0.1,0.11 -0.1,0.2 0,0.07 0.02,0.12 0.05,0.15 0.04,0.04 0.1,0.06 0.18,0.06z"/>
   <rect class="fil0" x="1.44" y="5.66" width="1.06" height="2.39" rx="0.53" ry="0.53"/>
   <rect class="fil0" x="20.24" y="5.66" width="1.06" height="2.39" rx="0.53" ry="0.53"/>
  </g>
  <rect class="fil2" width="71.67" height="23.23"/>
 </g>
</svg>
